<svg width="17" height="17" viewBox="0 0 17 17" fill="none" xmlns="http://www.w3.org/2000/svg">
<g clip-path="url(#clip0_3658_14836)">
<path d="M8.8398 4.35205C6.4638 4.35205 4.5498 6.26605 4.5498 8.64205C4.5498 11.0181 6.4638 12.9321 8.8398 12.9321C11.2158 12.9321 13.1298 11.0181 13.1298 8.64205C13.1298 6.26605 11.2158 4.35205 8.8398 4.35205Z" fill="#F3F3F5"/>
<path d="M8.83969 3.95608C9.23569 3.95608 9.49969 3.69208 9.49969 3.29608V2.24008C9.49969 1.84408 9.23569 1.58008 8.83969 1.58008C8.44369 1.58008 8.17969 1.84408 8.17969 2.24008V3.29608C8.17969 3.62608 8.44369 3.95608 8.83969 3.95608Z" fill="#9B9CA3"/>
<path d="M4.41814 5.34214C4.55014 5.47414 4.74814 5.54014 4.88014 5.54014C5.01214 5.54014 5.21014 5.47414 5.34214 5.34214C5.60614 5.07814 5.60614 4.68214 5.34214 4.41814L4.61614 3.69214C4.35214 3.42814 3.95614 3.42814 3.69214 3.69214C3.42814 3.95614 3.42814 4.35214 3.69214 4.61614L4.41814 5.34214Z" fill="#9B9CA3"/>
<path d="M3.95608 8.84018C3.95608 8.44418 3.69208 8.18018 3.29608 8.18018H2.24008C1.84408 8.18018 1.58008 8.44418 1.58008 8.84018C1.58008 9.23618 1.84408 9.50018 2.24008 9.50018H3.29608C3.62608 9.50018 3.95608 9.23618 3.95608 8.84018Z" fill="#9B9CA3"/>
<path d="M4.41814 12.3381L3.69214 13.0641C3.42814 13.3281 3.42814 13.7241 3.69214 13.9881C3.82414 14.1201 4.02214 14.1861 4.15414 14.1861C4.28614 14.1861 4.48414 14.1201 4.61614 13.9881L5.34214 13.2621C5.60614 12.9981 5.60614 12.6021 5.34214 12.3381C5.07814 12.0741 4.68214 12.0741 4.41814 12.3381Z" fill="#9B9CA3"/>
<path d="M8.83969 13.7241C8.44369 13.7241 8.17969 13.9881 8.17969 14.3841V15.4401C8.17969 15.8361 8.44369 16.1001 8.83969 16.1001C9.23569 16.1001 9.49969 15.8361 9.49969 15.4401V14.3841C9.49969 14.0541 9.23569 13.7241 8.83969 13.7241Z" fill="#9B9CA3"/>
<path d="M13.2616 12.3381C12.9976 12.0741 12.6016 12.0741 12.3376 12.3381C12.0736 12.6021 12.0736 12.9981 12.3376 13.2621L13.0636 13.9881C13.1956 14.1201 13.3936 14.1861 13.5256 14.1861C13.6576 14.1861 13.8556 14.1201 13.9876 13.9881C14.2516 13.7241 14.2516 13.3281 13.9876 13.0641L13.2616 12.3381Z" fill="#9B9CA3"/>
<path d="M15.4396 8.18018H14.3836C13.9876 8.18018 13.7236 8.44418 13.7236 8.84018C13.7236 9.23618 13.9876 9.50018 14.3836 9.50018H15.4396C15.8356 9.50018 16.0996 9.23618 16.0996 8.84018C16.0996 8.44418 15.8356 8.18018 15.4396 8.18018Z" fill="#9B9CA3"/>
<path d="M12.7996 5.54014C12.9976 5.54014 13.1296 5.47414 13.2616 5.34214L13.9876 4.61614C14.2516 4.35214 14.2516 3.95614 13.9876 3.69214C13.7236 3.42814 13.3276 3.42814 13.0636 3.69214L12.3376 4.41814C12.0736 4.68214 12.0736 5.07814 12.3376 5.34214C12.4696 5.47414 12.6016 5.54014 12.7996 5.54014Z" fill="#9B9CA3"/>
</g>
<defs>
<clipPath id="clip0_3658_14836">
<rect width="15.84" height="15.84" fill="white" transform="translate(0.919922 0.919922)"/>
</clipPath>
</defs>
</svg>
