<svg width="21" height="20" viewBox="0 0 21 20" fill="none" xmlns="http://www.w3.org/2000/svg">
<path d="M20.3054 8.0415H19.4999V8H10.5V12H16.1514C15.3269 14.3285 13.1114 16 10.5 16C7.18647 16 4.49998 13.3135 4.49998 10C4.49998 6.6865 7.18647 4 10.5 4C12.0295 4 13.4209 4.577 14.4804 5.5195L17.3089 2.691C15.5229 1.0265 13.1339 0 10.5 0C4.97748 0 0.5 4.4775 0.5 10C0.5 15.5225 4.97748 20 10.5 20C16.0224 20 20.4999 15.5225 20.4999 10C20.4999 9.3295 20.4309 8.675 20.3054 8.0415Z" fill="#FFC107"/>
<path d="M1.65308 5.3455L4.93856 7.755C5.82756 5.554 7.98055 4 10.5 4C12.0295 4 13.421 4.577 14.4805 5.5195L17.309 2.691C15.523 1.0265 13.134 0 10.5 0C6.65906 0 3.32807 2.1685 1.65308 5.3455Z" fill="#FF3D00"/>
<path d="M10.5004 19.9994C13.0834 19.9994 15.4303 19.0109 17.2048 17.4034L14.1098 14.7844C13.0721 15.5736 11.8041 16.0004 10.5004 15.9994C7.89937 15.9994 5.69088 14.3409 4.85889 12.0264L1.5979 14.5389C3.25289 17.7774 6.61388 19.9994 10.5004 19.9994Z" fill="#4CAF50"/>
<path d="M20.3055 8.04113H19.5V7.99963H10.5V11.9996H16.1515C15.7571 13.1078 15.0467 14.0762 14.108 14.7851L14.1095 14.7841L17.2045 17.4031C16.9855 17.6021 20.5 14.9996 20.5 9.99963C20.5 9.32913 20.431 8.67463 20.3055 8.04113Z" fill="#1976D2"/>
</svg>
