<svg width="17" height="17" viewBox="0 0 17 17" fill="none" xmlns="http://www.w3.org/2000/svg">
<path d="M8.35847 15.44H8.29247C7.3873 15.4331 6.4926 15.2457 5.66077 14.8887C4.82893 14.5317 4.07668 14.0123 3.44807 13.361C2.28241 12.1144 1.61979 10.4803 1.58811 8.77393C1.55642 7.06758 2.1579 5.40996 3.27647 4.12098C3.99712 3.31337 4.90306 2.6928 5.91647 2.31258C6.03472 2.26708 6.16357 2.25658 6.28762 2.28233C6.41168 2.30807 6.5257 2.36898 6.61607 2.45778C6.69977 2.54314 6.75872 2.64962 6.78662 2.76586C6.81452 2.8821 6.81032 3.00374 6.77447 3.11778C6.41276 4.1084 6.3411 5.18164 6.56789 6.21155C6.79468 7.24146 7.31052 8.18533 8.05487 8.93239C8.80617 9.67445 9.75228 10.1885 10.7837 10.4151C11.815 10.6417 12.8895 10.5716 13.8827 10.2128C14.0009 10.1712 14.1285 10.1641 14.2506 10.1923C14.3727 10.2206 14.4842 10.283 14.5721 10.3723C14.6601 10.4616 14.7207 10.5741 14.7471 10.6966C14.7734 10.8192 14.7643 10.9466 14.7209 11.0642C14.3837 11.9642 13.857 12.7813 13.1765 13.46C12.5434 14.0911 11.7919 14.591 10.9651 14.9308C10.1382 15.2706 9.2524 15.4436 8.35847 15.44ZM5.16407 4.16718C4.83254 4.3997 4.52911 4.66991 4.25987 4.97238C3.35207 6.01264 2.86293 7.35295 2.88732 8.7334C2.91171 10.1139 3.44789 11.4361 4.39187 12.4436C4.8991 12.9704 5.50679 13.3902 6.17902 13.6781C6.85125 13.966 7.57438 14.1163 8.30567 14.12H8.35847C9.23376 14.1195 10.0963 13.9103 10.8745 13.5097C11.6528 13.1091 12.3243 12.5287 12.8333 11.8166C11.796 11.951 10.7417 11.8459 9.75136 11.5093C8.76103 11.1727 7.86102 10.6136 7.12046 9.87496C6.3799 9.13631 5.81848 8.23775 5.47934 7.2483C5.1402 6.25884 5.03235 5.20482 5.16407 4.16718Z" fill="#3E4565"/>
</svg>
