<svg width="126" height="23" viewBox="0 0 126 23" fill="none" xmlns="http://www.w3.org/2000/svg">
<path fill-rule="evenodd" clip-rule="evenodd" d="M0 11.4931C0 5.14564 5.14565 0 11.4931 0H15.2656V7.72057H22.9862V0H22.9862V11.4931C22.9862 17.8406 17.8406 22.9862 11.4931 22.9862C5.14564 22.9862 0 17.8406 0 11.4931ZM2.36816 14.1686C2.36816 10.6073 5.25522 7.72021 8.81659 7.72021H15.265V14.1686C15.265 17.73 12.378 20.6171 8.81659 20.6171C5.25523 20.6171 2.36816 17.73 2.36816 14.1686Z" fill="#4162FF"/>
<path d="M26.95 9.97547C26.95 6.59094 29.4626 3.96338 32.962 3.96338C35.0784 3.96338 36.945 5.03739 37.9358 6.69002L35.9701 7.83141C35.4073 6.80892 34.2857 6.17878 32.962 6.17878C30.6991 6.17878 29.2129 7.74818 29.2129 9.97943C29.2129 12.2107 30.6991 13.7642 32.962 13.7642C34.2818 13.7642 35.4232 13.1381 35.9701 12.1275L37.9358 13.2688C36.9609 14.9215 35.0942 15.9955 32.962 15.9955C29.4626 15.9915 26.95 13.3481 26.95 9.97547Z" fill="#ffffff"/>
<path d="M38.4675 11.4972C38.4675 9.0361 40.4015 7.13379 42.831 7.13379C45.2604 7.13379 47.2102 9.03214 47.2102 11.4972C47.2102 13.9623 45.2604 15.8606 42.831 15.8606C40.4015 15.8606 38.4675 13.9623 38.4675 11.4972ZM45.0741 11.4972C45.0741 10.1577 44.0992 9.2184 42.827 9.2184C41.5548 9.2184 40.5957 10.1616 40.5957 11.4972C40.5957 12.8328 41.5707 13.776 42.827 13.776C44.0833 13.776 45.0741 12.8328 45.0741 11.4972Z" fill="#ffffff"/>
<path d="M60.1738 10.5381V15.6268H58.0417V10.6887C58.0417 9.71374 57.5463 9.11927 56.6546 9.11927C55.7113 9.11927 55.1169 9.74544 55.1169 10.9859V15.6268H52.9847V10.6887C52.9847 9.71374 52.4893 9.11927 51.5976 9.11927C50.7059 9.11927 50.044 9.74544 50.044 10.9859V15.6268H47.9119V7.36756H50.044V8.24341C50.5077 7.54986 51.2845 7.1377 52.3387 7.1377C53.3929 7.1377 54.1221 7.56571 54.5858 8.32664C55.097 7.58157 55.9253 7.1377 57.0469 7.1377C58.9294 7.1377 60.1699 8.47724 60.1699 10.542L60.1738 10.5381Z" fill="#ffffff"/>
<path d="M70.0378 11.4972C70.0378 13.9583 68.2187 15.8606 66.0072 15.8606C64.8025 15.8606 63.9266 15.4127 63.3321 14.6558V18.936H61.2V7.36756H63.3321V8.34249C63.9266 7.58157 64.8025 7.1377 66.0072 7.1377C68.2226 7.1377 70.0378 9.03604 70.0378 11.5011V11.4972ZM67.9056 11.4972C67.9056 10.1101 66.9307 9.16683 65.6109 9.16683C64.2912 9.16683 63.3321 10.1101 63.3321 11.4972C63.3321 12.8843 64.3071 13.8275 65.6109 13.8275C66.9148 13.8275 67.9056 12.8843 67.9056 11.4972Z" fill="#ffffff"/>
<path d="M70.7466 3.96338H72.8788V16.0232H70.7466V3.96338Z" fill="#ffffff"/>
<path d="M78.166 13.9266C78.9903 13.9266 79.6522 13.5779 80.0168 13.1023L81.7368 14.0931C80.96 15.2146 79.7196 15.8606 78.1343 15.8606C75.3601 15.8606 73.6084 13.9623 73.6084 11.4972C73.6084 9.03214 75.376 7.13379 77.9718 7.13379C80.4171 7.13379 82.1529 9.0678 82.1529 11.4972C82.1529 11.8103 82.1212 12.0917 82.0697 12.3731H75.8396C76.1369 13.4629 77.0444 13.9266 78.17 13.9266H78.166ZM80.0168 10.7204C79.7513 9.53149 78.8596 9.05195 77.9679 9.05195C76.8265 9.05195 76.0497 9.66228 75.804 10.7204H80.0168Z" fill="#ffffff"/>
<path d="M88.0816 15.6269L86.2982 13.1142L84.499 15.6269H82.0378L85.0617 11.414L82.1726 7.36768H84.6337L86.3022 9.69801L87.9707 7.36768H90.4159L87.5228 11.3982L90.5467 15.6269H88.0856H88.0816Z" fill="#ffffff"/>
<path d="M100.616 13.7443V15.9241H93.9265V4.35962H96.2053V13.7443H100.616Z" fill="#ffffff"/>
<path d="M109.653 7.36743V15.6266H107.521V14.6517C106.926 15.3968 106.035 15.8565 104.83 15.8565C102.634 15.8565 100.815 13.9581 100.815 11.4931C100.815 9.02799 102.63 7.12964 104.83 7.12964C106.035 7.12964 106.926 7.59333 107.521 8.33443V7.3595H109.653V7.36743ZM107.521 11.497C107.521 10.1099 106.546 9.1667 105.226 9.1667C103.906 9.1667 102.947 10.1099 102.947 11.497C102.947 12.8841 103.922 13.8274 105.226 13.8274C106.53 13.8274 107.521 12.8841 107.521 11.497Z" fill="#ffffff"/>
<path d="M119.236 11.4971C119.236 13.9582 117.421 15.8605 115.205 15.8605C114.001 15.8605 113.125 15.4127 112.53 14.6557V15.6307H110.398V4.06226H112.53V8.34245C113.125 7.58153 114.001 7.13766 115.205 7.13766C117.421 7.13766 119.236 9.036 119.236 11.5011V11.4971ZM117.104 11.4971C117.104 10.11 116.129 9.16679 114.809 9.16679C113.489 9.16679 112.53 10.11 112.53 11.4971C112.53 12.8842 113.505 13.8274 114.809 13.8274C116.113 13.8274 117.104 12.8842 117.104 11.4971Z" fill="#ffffff"/>
<path d="M125.992 13.2172C125.992 15.0006 124.438 15.8606 122.671 15.8606C121.018 15.8606 119.797 15.167 119.203 13.8949L121.054 12.8526C121.284 13.5302 121.846 13.9266 122.675 13.9266C123.352 13.9266 123.816 13.6967 123.816 13.2172C123.816 12.0124 119.556 12.6702 119.556 9.76526C119.556 8.08092 120.994 7.1377 122.694 7.1377C124.034 7.1377 125.187 7.74802 125.833 8.88941L124.014 9.88019C123.768 9.35309 123.305 9.03604 122.694 9.03604C122.167 9.03604 121.735 9.2659 121.735 9.71374C121.735 10.9344 126 10.1774 126 13.2172H125.992Z" fill="#ffffff"/>
</svg>
